<svg xmlns="http://www.w3.org/2000/svg" viewBox="0 0 934.14 236.8"><defs><style>.cls-1{fill:#ff7400;}.cls-2{fill:#ff4d00;}</style></defs><title>Asset 1</title><g id="Layer_2" data-name="Layer 2"><g id="Livello_1" data-name="Livello 1"><path class="cls-1" d="M12.8,135.66C20.95,143.34,37.71,151,51.67,151c12.8,0,18.85-4.42,18.85-11.4,0-7.91-9.78-10.71-22.58-13.27C28.63,122.63,3.72,118,3.72,91.21c0-18.85,16.53-35.38,46.08-35.38,19.09,0,34.21,6.52,45.39,15.36L83.32,91.44c-6.75-7.22-19.55-13-33.28-13-10.71,0-17.69,4-17.69,10.47,0,7,8.84,9.54,21.41,12.1,19.32,3.72,45.15,8.84,45.15,36.77,0,20.48-17.46,36.08-48.64,36.08-19.55,0-38.4-6.52-50.27-17.46Z"/><path class="cls-1" d="M163.85,127.75l-13.5,14.43V171H120.79V15.8h29.56v92.87l42.59-50h36.31l-44.46,51L230.65,171h-37Z"/><path class="cls-1" d="M242.28,26.5A17.69,17.69,0,1,1,260,44.19,17.83,17.83,0,0,1,242.28,26.5Zm3,32.12h29.56V171H245.31Z"/><path class="cls-1" d="M304.19,213.87V58.62h29.56v14.2a43.43,43.43,0,0,1,34.68-17c28.86,0,49.81,21.41,49.81,58.89s-20.95,59.12-49.81,59.12c-13.27,0-25.6-5.59-34.68-17.22v57.26ZM359.12,82.13c-9.54,0-20.48,5.59-25.37,12.8v39.8c4.89,7,15.83,12.8,25.37,12.8,17,0,28.4-13.27,28.4-32.82C387.51,95.4,376.11,82.13,359.12,82.13Z"/><path class="cls-2" d="M667.65,55.83C701.17,55.83,724,81,724,117.74v6.52H640.42c1.86,14.2,13.27,26.07,32.35,26.07,10.47,0,22.81-4.19,30-11.17l13,19.09c-11.17,10.24-28.86,15.59-46.32,15.59-34.21,0-60.05-23-60.05-59.12C609.46,82.13,633.44,55.83,667.65,55.83ZM640,104.24h55.39c-.7-10.71-8.15-24.9-27.7-24.9C649.26,79.34,641.35,93.07,640,104.24Z"/><path class="cls-2" d="M812.88,159.4c-7.68,9.08-20.95,14.43-35.61,14.43-17.92,0-39.1-12.1-39.1-37.24,0-26.3,21.18-35.84,39.1-35.84,14.9,0,28.16,4.66,35.61,13.73V98.89c0-11.4-9.78-18.85-24.67-18.85-12.1,0-23.27,4.42-32.82,13.27L744.22,73.52c13.73-12.1,31.42-17.69,49.11-17.69,25.6,0,49.11,10.24,49.11,42.59V171H812.88Zm0-29.33c-4.89-6.52-14.2-9.78-23.74-9.78-11.64,0-21.18,6.05-21.18,17,0,10.47,9.54,16.53,21.18,16.53,9.54,0,18.85-3.26,23.74-9.78Z"/><path class="cls-2" d="M877.58,143.11V84.46H859V58.62h18.62V27.9h29.79V58.62h22.81V84.46H907.38V135.2c0,7,3.72,12.34,10.24,12.34,4.42,0,8.61-1.63,10.24-3.26l6.28,22.34c-4.42,4-12.34,7.22-24.67,7.22C888.75,173.83,877.58,163.13,877.58,143.11Z"/><path class="cls-1" d="M450.08,101.86l76.27-44a7.38,7.38,0,0,0,0-12.78L450.08,1A7.38,7.38,0,0,0,439,7.39V95.47A7.38,7.38,0,0,0,450.08,101.86Z"/><path class="cls-1" d="M450.08,235.8l76.27-44a7.38,7.38,0,0,0,0-12.78l-76.27-44A7.38,7.38,0,0,0,439,141.33v88.08A7.38,7.38,0,0,0,450.08,235.8Z"/><path class="cls-2" d="M572.14,66.65l-76.27,44a7.38,7.38,0,0,0,0,12.78l76.27,44a7.38,7.38,0,0,0,11.07-6.39V73A7.38,7.38,0,0,0,572.14,66.65Z"/></g></g></svg>